<svg width="613" height="240" viewBox="0 0 613 240" fill="#222" xmlns="http://www.w3.org/2000/svg">
<path d="M70.3333 36.6667H15C15 172.333 14.3333 202.333 0 212.667V236.667H23.3333C25 201 23.6667 166 23.3333 58.3333H47V236.667H70.3333V36.6667Z"/>
<path d="M117.122 126H157.122V72.6667C157.122 43.6667 147.456 33.3334 129.122 33.3334C109.122 33.3334 93.7891 45.6667 93.7891 78.6667V201C93.7891 229.667 104.122 240 124.456 240C146.789 240 157.456 216 156.789 184.333L155.789 144.333H151.122L150.122 183.333C149.456 204.667 145.122 217.333 135.122 217.333C125.789 217.333 117.122 213.667 117.122 189.667V126ZM126.789 56C133.456 56 137.122 59.3333 137.122 83.6667V121.333H117.122V75.3333C117.122 63.3333 118.789 56 126.789 56Z"/>
<path d="M249.841 36.6667H180.508V236.667H203.841V58.3333H226.508V236.667H249.841V36.6667Z"/>
<path d="M305.086 0H276.419V15.3333H305.086V0ZM313.086 0V15.3333H341.753V0H313.086ZM308.419 33.3334C288.419 33.3334 273.086 45.6667 273.086 78.6667V201C273.086 229.667 283.419 240 303.753 240C326.086 240 336.753 216 336.086 184.333L335.086 144.333H330.419L329.419 183.333C328.753 204.667 324.419 217.333 314.419 217.333C305.086 217.333 296.419 213.667 296.419 189.667V126H336.419V72.6667C336.419 43.6667 326.753 33.3334 308.419 33.3334ZM296.419 121.333V75.3333C296.419 63.3333 298.086 56 306.086 56C312.753 56 316.419 59.3333 316.419 83.6667V121.333H296.419Z"/>
<path d="M401.047 127.667L432.38 36.6667H404.38L396.714 113H393.047L385.047 77.6667L374.047 36.6667H347.714L379.714 132L346.38 236.667H374.38L384.714 146.667H387.714L395.714 190.333L406.714 236.667H433.047L401.047 127.667Z"/>
<path d="M518.099 36.6667H494.432L466.432 195.667H461.766L466.432 118.667L468.766 36.6667H444.766V236.667H468.432L496.099 77.6667H501.099L496.432 154.667L494.432 236.667H518.099V36.6667Z"/>
<path d="M589.112 36.6667V132H564.779V36.6667H541.445V236.667H564.779V138.667H589.112V236.667H612.445V36.6667H589.112Z"/>
</svg>
