<svg width="271" height="271" viewBox="0 0 271 271" fill="none" xmlns="http://www.w3.org/2000/svg">
<path d="M131.779 2.14465C133.766 -0.0685304 137.234 -0.068526 139.221 2.14465L141.185 4.33274C142.988 6.34138 146.06 6.55619 148.125 4.81805L150.375 2.92463C152.65 1.0095 156.085 1.49213 157.744 3.96028L159.385 6.40044C160.891 8.64049 163.903 9.28075 166.19 7.84694L168.681 6.28504C171.201 4.70524 174.534 5.6611 175.834 8.33617L177.119 10.9809C178.299 13.4088 181.193 14.462 183.657 13.3605L186.341 12.1605C189.057 10.9467 192.225 12.3572 193.14 15.1872L194.044 17.985C194.874 20.5534 197.593 21.9992 200.187 21.2513L203.012 20.4366C205.87 19.6125 208.811 21.4502 209.323 24.3799L209.829 27.2764C210.294 29.9354 212.785 31.7455 215.458 31.3658L218.369 30.9523C221.314 30.534 223.97 32.763 224.069 35.7355L224.168 38.6743C224.258 41.3721 226.473 43.5112 229.172 43.5072L232.113 43.5028C235.087 43.4984 237.407 46.0755 237.092 49.0329L236.78 51.9567C236.494 54.6408 238.39 57.0675 241.064 57.4391L243.976 57.844C246.922 58.2536 248.861 61.1285 248.137 64.0132L247.422 66.8652C246.765 69.4834 248.304 72.1503 250.9 72.8904L253.728 73.6967C256.588 74.5122 258.108 77.6291 256.99 80.385L255.884 83.1097C254.87 85.6109 256.023 88.4661 258.491 89.5604L261.179 90.7523C263.898 91.958 264.969 95.2561 263.478 97.8295L262.004 100.374C260.651 102.709 261.396 105.697 263.687 107.124L266.183 108.679C268.708 110.251 269.31 113.666 267.475 116.007L265.662 118.322C263.997 120.446 264.319 123.509 266.389 125.241L268.644 127.128C270.925 129.036 271.046 132.502 268.904 134.564L266.786 136.604C264.841 138.476 264.734 141.554 266.543 143.557L268.514 145.739C270.507 147.946 270.145 151.395 267.736 153.14L265.354 154.865C263.168 156.448 262.634 159.481 264.146 161.716L265.794 164.151C267.461 166.615 266.622 169.979 263.994 171.372L261.396 172.748C259.011 174.012 258.059 176.941 259.246 179.365L260.539 182.006C261.846 184.677 260.547 187.893 257.751 188.906L254.987 189.907C252.449 190.827 251.099 193.594 251.937 196.16L252.849 198.955C253.773 201.783 252.039 204.786 249.129 205.4L246.252 206.007C243.611 206.564 241.889 209.117 242.361 211.775L242.876 214.67C243.397 217.598 241.262 220.331 238.295 220.534L235.361 220.734C232.668 220.919 230.608 223.207 230.706 225.905L230.813 228.843C230.921 231.815 228.427 234.224 225.46 234.012L222.527 233.803C219.835 233.611 217.476 235.59 217.197 238.275L216.894 241.2C216.588 244.158 213.782 246.196 210.874 245.574L207.999 244.958C205.359 244.393 202.748 246.025 202.099 248.645L201.392 251.499C200.677 254.386 197.615 256.014 194.821 254.993L192.06 253.983C189.525 253.056 186.711 254.308 185.704 256.813L184.607 259.54C183.497 262.3 180.238 263.486 177.614 262.086L175.02 260.701C172.638 259.43 169.678 260.279 168.332 262.619L166.866 265.168C165.382 267.746 161.99 268.467 159.587 266.715L157.21 264.983C155.029 263.393 151.98 263.822 150.321 265.951L148.514 268.271C146.686 270.617 143.227 270.859 141.091 268.79L138.979 266.744C137.04 264.866 133.96 264.866 132.021 266.744L129.909 268.79C127.773 270.859 124.314 270.617 122.486 268.271L120.679 265.951C119.02 263.822 115.971 263.393 113.79 264.983L111.413 266.715C109.01 268.467 105.618 267.746 104.134 265.168L102.668 262.619C101.322 260.279 98.3617 259.43 95.9803 260.701L93.3861 262.086C90.7622 263.486 87.5035 262.3 86.3935 259.54L85.296 256.813C84.2886 254.308 81.4753 253.056 78.9402 253.983L76.1786 254.993C73.3854 256.014 70.3235 254.386 69.6083 251.499L68.9012 248.645C68.2521 246.025 65.6405 244.393 63.0011 244.958L60.1258 245.574C57.2176 246.196 54.4121 244.158 54.1056 241.2L53.8026 238.275C53.5244 235.59 51.1654 233.611 48.473 233.803L45.54 234.012C42.5735 234.224 40.0789 231.815 40.1871 228.843L40.2941 225.905C40.3924 223.207 38.3318 220.919 35.6388 220.734L32.7052 220.534C29.738 220.331 27.603 217.598 28.1239 214.67L28.6388 211.775C29.1114 209.117 27.3894 206.564 24.7483 206.007L21.8712 205.4C18.9612 204.786 17.2273 201.783 18.1505 198.955L19.0633 196.16C19.9013 193.594 18.5513 190.827 16.0135 189.907L13.2489 188.906C10.4526 187.893 9.15352 184.677 10.4613 182.006L11.7542 179.365C12.9411 176.941 11.9895 174.012 9.60429 172.748L7.00599 171.372C4.3779 169.979 3.53897 166.615 5.20576 164.151L6.85365 161.716C8.3664 159.481 7.83165 156.448 5.64552 154.865L3.2641 153.14C0.855371 151.395 0.492885 147.946 2.48626 145.739L4.45704 143.557C6.2662 141.554 6.15872 138.476 4.21423 136.604L2.09603 134.564C-0.0464605 132.502 0.0745652 129.036 2.35573 127.128L4.61104 125.241C6.68139 123.509 7.00328 120.446 5.33827 118.322L3.52452 116.007C1.68997 113.666 2.29215 110.251 4.81671 108.679L7.31265 107.124C9.6039 105.697 10.3489 102.709 8.99577 100.374L7.52177 97.8295C6.03087 95.2561 7.10248 91.958 9.82129 90.7523L12.5093 89.5604C14.9768 88.4661 16.1304 85.6109 15.1155 83.1097L14.01 80.385C12.8917 77.6291 14.4119 74.5122 17.2721 73.6967L20.0998 72.8904C22.6956 72.1503 24.2353 69.4834 23.5784 66.8652L22.8628 64.0132C22.139 61.1285 24.0782 58.2536 27.024 57.844L29.9364 57.4391C32.61 57.0675 34.5059 54.6408 34.2197 51.9567L33.908 49.0329C33.5927 46.0755 35.9132 43.4984 38.8873 43.5028L41.8277 43.5072C44.527 43.5112 46.7422 41.3721 46.8324 38.6743L46.9306 35.7355C47.03 32.763 49.6865 30.534 52.6311 30.9523L55.5423 31.3658C58.2147 31.7455 60.706 29.9354 61.1708 27.2764L61.6771 24.3799C62.1892 21.4502 65.1301 19.6125 67.9878 20.4366L70.8131 21.2513C73.4067 21.9992 76.1257 20.5534 76.956 17.985L77.8605 15.1872C78.7753 12.3572 81.9433 10.9467 84.6585 12.1605L87.3429 13.3605C89.8072 14.462 92.701 13.4088 93.8807 10.9809L95.1657 8.33617C96.4655 5.6611 99.799 4.70524 102.319 6.28505L104.81 7.84694C107.097 9.28075 110.109 8.64049 111.615 6.40044L113.256 3.96027C114.915 1.49212 118.35 1.0095 120.625 2.92463L122.875 4.81805C124.94 6.55619 128.012 6.34138 129.815 4.33273L131.779 2.14465Z" fill="#5A3FFF"/>
</svg>
